<svg width="28" height="28" viewBox="0 0 28 28" fill="none" xmlns="http://www.w3.org/2000/svg">
<path d="M14 3.5C16.0767 3.5 18.1068 4.11581 19.8335 5.26957C21.5602 6.42332 22.906 8.0632 23.7007 9.98182C24.4955 11.9004 24.7034 14.0116 24.2982 16.0485C23.8931 18.0853 22.8931 19.9562 21.4246 21.4246C19.9562 22.8931 18.0853 23.8931 16.0485 24.2982C14.0117 24.7034 11.9005 24.4955 9.98183 23.7007C8.06321 22.906 6.42333 21.5602 5.26957 19.8335C4.11582 18.1068 3.50001 16.0767 3.50001 14C3.50001 11.2152 4.60625 8.54451 6.57538 6.57538C8.54452 4.60625 11.2152 3.5 14 3.5ZM14 1.75C11.5772 1.75 9.20877 2.46845 7.19427 3.8145C5.17977 5.16055 3.60965 7.07373 2.68248 9.31213C1.75531 11.5505 1.51272 14.0136 1.98539 16.3899C2.45805 18.7661 3.62475 20.9489 5.33795 22.6621C7.05114 24.3753 9.23388 25.542 11.6101 26.0146C13.9864 26.4873 16.4495 26.2447 18.6879 25.3175C20.9263 24.3904 22.8395 22.8202 24.1855 20.8057C25.5316 18.7912 26.25 16.4228 26.25 14C26.25 10.7511 24.9594 7.63526 22.6621 5.33794C20.3647 3.04062 17.2489 1.75 14 1.75Z" fill="#30313F"/>
<path d="M20.125 9.10875L18.8913 7.875L15.1288 11.6375C14.6389 11.4036 14.0886 11.3272 13.5536 11.419C13.0186 11.5108 12.5252 11.7662 12.1413 12.1501C11.7575 12.5339 11.5021 13.0273 11.4103 13.5623C11.3185 14.0973 11.3948 14.6477 11.6287 15.1375L7.875 18.8913L9.10875 20.125L12.8713 16.3625C13.3611 16.5964 13.9114 16.6728 14.4464 16.581C14.9814 16.4892 15.4748 16.2338 15.8587 15.8499C16.2425 15.4661 16.4979 14.9727 16.5897 14.4377C16.6815 13.9027 16.6052 13.3523 16.3712 12.8625L20.125 9.10875ZM14.875 14C14.875 14.1731 14.8237 14.3422 14.7275 14.4861C14.6314 14.63 14.4947 14.7422 14.3348 14.8084C14.175 14.8746 13.999 14.8919 13.8293 14.8582C13.6596 14.8244 13.5037 14.7411 13.3813 14.6187C13.2589 14.4963 13.1756 14.3404 13.1418 14.1707C13.1081 14.001 13.1254 13.825 13.1916 13.6652C13.2578 13.5053 13.37 13.3686 13.5139 13.2725C13.6578 13.1763 13.8269 13.125 14 13.125C14.2321 13.125 14.4546 13.2172 14.6187 13.3813C14.7828 13.5454 14.875 13.7679 14.875 14Z" fill="#30313F"/>
<path d="M14 7.875C14.7249 7.875 15.3125 7.28737 15.3125 6.5625C15.3125 5.83763 14.7249 5.25 14 5.25C13.2751 5.25 12.6875 5.83763 12.6875 6.5625C12.6875 7.28737 13.2751 7.875 14 7.875Z" fill="#30313F"/>
</svg>
