<svg width="30" height="30" viewBox="0 0 30 30" fill="none" xmlns="http://www.w3.org/2000/svg">
<path fill-rule="evenodd" clip-rule="evenodd" d="M4.7577 7.758C5.88286 6.63317 7.40871 6.00128 8.9997 6.00128C10.5907 6.00128 12.1165 6.63317 13.2417 7.758L14.9997 9.5145L16.7577 7.758C17.3112 7.18494 17.9732 6.72784 18.7053 6.41339C19.4373 6.09894 20.2246 5.93342 21.0213 5.9265C21.818 5.91957 22.608 6.07138 23.3454 6.37307C24.0828 6.67475 24.7527 7.12027 25.3161 7.68363C25.8794 8.24698 26.3249 8.9169 26.6266 9.65427C26.9283 10.3917 27.0801 11.1817 27.0732 11.9784C27.0663 12.7751 26.9008 13.5624 26.5863 14.2944C26.2719 15.0265 25.8148 15.6885 25.2417 16.242L14.9997 26.4855L4.7577 16.242C3.63287 15.1168 3.00098 13.591 3.00098 12C3.00098 10.409 3.63287 8.88316 4.7577 7.758Z" fill="#B84441"/>
</svg>
