<svg width="28" height="28" viewBox="0 0 28 28" fill="none" xmlns="http://www.w3.org/2000/svg">
<g clip-path="url(#clip0)">
<path d="M18.0835 14.3889V9.48232L15.1988 8.15779C12.0006 11.9629 10.8052 21.8745 3.0625 21.8745C2.25027 21.8745 1.47132 22.1972 0.896985 22.7715C0.322655 23.3458 0 24.1248 0 24.937C0 25.7492 0.322655 26.5282 0.896985 27.1025C1.47132 27.6769 2.25027 27.9995 3.0625 27.9995C14.6912 27.9995 23.3324 21.2801 25.9864 16.4965L23.9602 14.3889H18.0835ZM25.2525 7.36865C27.0113 4.09615 26.0958 1.44763 25.0808 0.163571C25.0421 0.11555 24.9936 0.0762584 24.9387 0.0482759C24.8837 0.0202935 24.8234 0.0042524 24.7618 0.00120546C24.7002 -0.00184149 24.6386 0.00817457 24.5812 0.0305963C24.5237 0.0530181 24.4716 0.0873386 24.4284 0.131306L23.176 1.38912C23.1041 1.46217 23.0599 1.55799 23.0511 1.66009C23.0422 1.7622 23.0691 1.8642 23.1273 1.94857C23.5025 2.51513 24.0598 3.8681 23.0508 5.90357C22.065 5.47262 21.0007 5.24995 19.9248 5.24951C18.3936 5.24951 16.9717 5.71654 15.75 6.4849L19.8335 8.36013V12.6389H24.7056L27.6959 15.7495C27.8742 15.0594 28 14.3479 28 13.5997C28.0011 12.4271 27.7573 11.2671 27.2841 10.1941C26.811 9.12112 26.119 8.15875 25.2525 7.36865Z" fill="white"/>
</g>
<defs>
<clipPath id="clip0">
<rect width="28" height="28" fill="white"/>
</clipPath>
</defs>
</svg>
