<svg width="26" height="26" viewBox="0 0 26 26" fill="none" xmlns="http://www.w3.org/2000/svg">
<path d="M25.1874 23.9097L18.3452 17.0313C19.981 15.0577 20.7936 12.5298 20.6143 9.97272C20.4349 7.41564 19.2775 5.02591 17.3823 3.29988C15.4872 1.57385 13 0.644197 10.4373 0.704011C7.87465 0.763825 5.43352 1.80851 3.62095 3.62108C1.80839 5.43364 0.763703 7.87478 0.703889 10.4374C0.644075 13.0001 1.57373 15.4873 3.29976 17.3825C5.02578 19.2776 7.41552 20.4351 9.97259 20.6144C12.5297 20.7937 15.0576 19.9811 17.0312 18.3454L23.9096 25.1875L25.1874 23.9097ZM2.53118 10.6875C2.53118 9.0744 3.00953 7.49747 3.90575 6.15618C4.80197 4.81489 6.07581 3.76948 7.56616 3.15216C9.05653 2.53483 10.6965 2.37331 12.2786 2.68802C13.8608 3.00273 15.3141 3.77954 16.4548 4.92021C17.5954 6.06088 18.3722 7.51419 18.687 9.09634C19.0017 10.6785 18.8401 12.3185 18.2228 13.8088C17.6055 15.2992 16.5601 16.573 15.2188 17.4692C13.8775 18.3654 12.3006 18.8438 10.6874 18.8438C8.52425 18.8438 6.44968 17.9845 4.92009 16.4549C3.39049 14.9253 2.53118 12.8507 2.53118 10.6875Z" fill="#30313F" fill-opacity="0.8"/>
</svg>
